<?xml version="1.0" standalone="no"?>
<!DOCTYPE svg PUBLIC "-//W3C//DTD SVG 20010904//EN"
 "http://www.w3.org/TR/2001/REC-SVG-20010904/DTD/svg10.dtd">
<svg version="1.0" xmlns="http://www.w3.org/2000/svg"
 width="50pt" height="50pt" viewBox="0 0 1200.000000 1200.000000"
 preserveAspectRatio="xMidYMid meet">

<g transform="translate(0.000000,1200.000000) scale(0.100000,-0.100000)"
fill="lightgray" stroke="none">
<path d="M4263 8524 c-283 -62 -511 -280 -589 -565 -28 -99 -25 -300 4 -404
33 -114 96 -226 175 -311 114 -122 232 -195 383 -234 80 -20 86 -20 2004 -18
l1925 3 88 31 c207 75 351 203 447 399 65 132 85 230 77 379 -16 331 -223 596
-552 707 l-70 24 -1915 2 c-1593 1 -1926 -1 -1977 -13z"/>
<path d="M4715 6485 c-257 -41 -468 -147 -646 -325 -171 -171 -284 -385 -324
-618 -22 -126 -22 -1987 0 -2091 32 -152 102 -279 215 -391 108 -106 214 -165
371 -207 84 -22 260 -22 351 0 319 78 556 340 598 660 5 39 10 318 10 618 0
607 -1 592 68 684 27 36 56 60 106 85 l69 35 1126 5 c1044 6 1130 7 1186 24
282 85 484 292 555 570 24 95 27 248 5 348 -59 281 -266 500 -557 590 l-73 23
-1490 2 c-1173 1 -1507 -1 -1570 -12z"/>
</g>
</svg>
